<?xml version="1.0" encoding="utf-8"?><svg xmlns="http://www.w3.org/2000/svg" width="77.967" height="45.278" viewBox="0 0 77.967 45.278">
  <g id="Group_83" data-name="Group 83" transform="translate(-637.9 -3511)">
    <g id="fast-delivery" transform="translate(644.367 3511)">
      <path id="Path_32" data-name="Path 32" d="M369.18,347.086a3.154,3.154,0,1,0,3.154,3.154A3.157,3.157,0,0,0,369.18,347.086Zm0,4.213a1.059,1.059,0,1,1,1.059-1.059A1.06,1.06,0,0,1,369.18,351.3Z" transform="translate(-314.911 -311.727)" fill="#fff"/>
      <path id="Path_33" data-name="Path 33" d="M122.466,347.086a3.154,3.154,0,1,0,3.154,3.154A3.157,3.157,0,0,0,122.466,347.086Zm0,4.213a1.059,1.059,0,1,1,1.059-1.059A1.06,1.06,0,0,1,122.466,351.3Z" transform="translate(-102.65 -311.727)" fill="#fff"/>
      <path id="Path_34" data-name="Path 34" d="M122.743,134.256l.44-3.228a1.8,1.8,0,0,0-1.541-2.023l1.251-9.89a3.168,3.168,0,0,0-.79-2.52l-6.967-7.732a3.175,3.175,0,0,0-2.356-1.048H99.5L99.784,104a1.047,1.047,0,1,0-2.089-.155L95.882,128.3H76.9a6.763,6.763,0,0,0-10.761,0H62.707l2.4-32.318H98.278l-.221,2.977a1.047,1.047,0,0,0,2.089.155l.244-3.3a1.8,1.8,0,0,0-1.793-1.93H64.827a1.805,1.805,0,0,0-1.793,1.665c-2.877,38.816-2.37,32.363-2.935,38.292a1.8,1.8,0,0,0,1.789,1.968h3.788a6.759,6.759,0,0,0,11.676,0H100.13a6.759,6.759,0,0,0,11.676,0h9.155a1.8,1.8,0,0,0,1.782-1.555Zm-57.864-.54H62.215l.316-3.322h2.522A6.818,6.818,0,0,0,64.878,133.716Zm6.637,3.353a4.67,4.67,0,1,1,4.67-4.67A4.678,4.678,0,0,1,71.515,137.069Zm23.872-3.353H78.152a6.815,6.815,0,0,0-.175-3.322H95.7C95.583,131.646,95.5,132.478,95.386,133.716Zm10.582,3.353a4.664,4.664,0,1,1,4.67-4.67A4.676,4.676,0,0,1,105.968,137.069Zm0-11.435a6.5,6.5,0,0,0-5.708,2.989,7.257,7.257,0,0,0-.931,5.093H97.49c.565-5.936.11-.267,1.855-23.806H112.78a1.077,1.077,0,0,1,.8.356L120.545,118a1.075,1.075,0,0,1,.268.855l-1.282,10.135h-7.721A6.772,6.772,0,0,0,105.968,125.634Zm6.637,8.082a6.888,6.888,0,0,0,0-2.634h8.456l-.359,2.634Z" transform="translate(-51.699 -93.886)" fill="#fff"/>
      <path id="Path_35" data-name="Path 35" d="M355.491,291.517h-1.333a1.047,1.047,0,0,0,0,2.095h1.333a1.047,1.047,0,0,0,0-2.095Z" transform="translate(-303.799 -263.918)" fill="#fff"/>
      <path id="Path_44" data-name="Path 44" d="M361.893,221.958a1.887,1.887,0,0,0-1.4-.623h-1.928a1.047,1.047,0,1,0,0,2.095H360.4l5.278,5.858-.289,2.289H363.2l-2.412-2.856a1.881,1.881,0,0,0-1.44-.669h-7.886l.343-4.622h1.876a1.047,1.047,0,0,0,0-2.095h-2.071a1.893,1.893,0,0,0-1.88,1.746l-.374,5.042a1.885,1.885,0,0,0,1.88,2.024h8.015L361.66,233a1.881,1.881,0,0,0,1.44.669h2.473a1.888,1.888,0,0,0,1.87-1.649l.325-2.568a1.883,1.883,0,0,0-.469-1.5Z" transform="translate(-300.562 -203.537)" fill="#fff"/>
    </g>
    <g id="fast-delivery-2" data-name="fast-delivery" transform="translate(637.9 3511)">
      <path id="Path_37" data-name="Path 37" d="M1.529,151.35h9.544c.845,0,1.529-.469,1.529-1.047s-.685-1.047-1.529-1.047H1.529c-.845,0-1.529.469-1.529,1.047S.685,151.35,1.529,151.35Z" transform="translate(0 -141.523)" fill="#cc0000"/>
      <path id="Path_38" data-name="Path 38" d="M1.534,185.674h9.052c.847,0,1.534-.469,1.534-1.047s-.687-1.047-1.534-1.047H1.534c-.847,0-1.534.469-1.534,1.047S.687,185.674,1.534,185.674Z" transform="translate(0 -171.053)" fill="#cc0000"/>
      <path id="Path_39" data-name="Path 39" d="M1.539,220h8.5c.85,0,1.539-.469,1.539-1.047s-.689-1.047-1.539-1.047h-8.5c-.85,0-1.539.469-1.539,1.047S.689,220,1.539,220Z" transform="translate(0 -200.584)" fill="#cc0000"/>
      <path id="Path_40" data-name="Path 40" d="M1.425,254.322H8.866c.787,0,1.425-.469,1.425-1.047s-.638-1.047-1.425-1.047H1.425c-.787,0-1.425.469-1.425,1.047S.638,254.322,1.425,254.322Z" transform="translate(0 -230.115)" fill="#cc0000"/>
      <path id="Path_41" data-name="Path 41" d="M1.425,288.646H8.382c.787,0,1.425-.469,1.425-1.047s-.638-1.047-1.425-1.047H1.425C.638,286.551,0,287.02,0,287.6S.638,288.646,1.425,288.646Z" transform="translate(0 -259.646)" fill="#cc0000"/>
      <path id="Path_42" data-name="Path 42" d="M1.425,322.97H7.9c.787,0,1.425-.469,1.425-1.047s-.638-1.047-1.425-1.047H1.425c-.787,0-1.425.469-1.425,1.047S.638,322.97,1.425,322.97Z" transform="translate(0 -289.176)" fill="#cc0000"/>
      <path id="Path_43" data-name="Path 43" d="M1.425,357.294H7.4c.787,0,1.425-.469,1.425-1.047S8.184,355.2,7.4,355.2H1.425c-.787,0-1.425.469-1.425,1.047S.638,357.294,1.425,357.294Z" transform="translate(0 -318.707)" fill="#cc0000"/>
    </g>
  </g>
</svg>
