<?xml version="1.0" encoding="utf-8"?><svg id="delivery-box_1_" data-name="delivery-box (1)" xmlns="http://www.w3.org/2000/svg" width="45.4" height="51.287" viewBox="0 0 45.4 51.287">
  <g id="Group_28" data-name="Group 28" transform="translate(0)">
    <path id="Path_6" data-name="Path 6" d="M74.663,242.472l-3.59-7.051a1,1,0,0,0-.893-.547H33.964a1,1,0,0,0-.893.547l-3.59,7.051a1,1,0,0,0,.893,1.457h1.251V261.62a1,1,0,0,0,1,1H71.513a1,1,0,0,0,1-1v-17.69h1.254a1,1,0,0,0,.893-1.457Zm-5.1-5.594,2.569,5.047H56.276l-2.569-5.047Zm-34.987,0H50.437l-2.569,5.047H32.009Zm35.933,23.739H53.074v-5.555a1,1,0,0,0-2,0v5.555H33.629V243.929H48.482a1,1,0,0,0,.893-.548l1.694-3.328v6.01a1,1,0,0,0,2,0v-6.01l1.694,3.328a1,1,0,0,0,.893.548h14.85Z" transform="translate(-29.372 -211.335)" fill="#fff"/>
    <path id="Path_7" data-name="Path 7" d="M110.127,436.98H104.42a1,1,0,0,0,0,2h5.707a1,1,0,1,0,0-2Z" transform="translate(-95.997 -393.186)" fill="#fff"/>
    <path id="Path_8" data-name="Path 8" d="M163.512,20.592a10.3,10.3,0,1,0-10.287-10.3A10.3,10.3,0,0,0,163.512,20.592Zm0-18.588a8.292,8.292,0,1,1-8.283,8.29A8.295,8.295,0,0,1,163.512,2Z" transform="translate(-140.812)" fill="#da0000"/>
    <path id="Path_9" data-name="Path 9" d="M207.859,68.292l2.668,2.261a1,1,0,0,0,.648.238q.043,0,.086,0a1,1,0,0,0,.683-.355l5.02-6a1,1,0,1,0-1.537-1.286l-4.373,5.226-1.9-1.609a1,1,0,0,0-1.3,1.529Z" transform="translate(-189.653 -56.494)" fill="#da0000"/>
    <path id="Path_10" data-name="Path 10" d="M50.422,94.724h4.336a1,1,0,1,0,0-2H50.422a1,1,0,1,0,0,2Z" transform="translate(-47.411 -83.428)" fill="#da0000"/>
    <path id="Path_11" data-name="Path 11" d="M49.953,26.179l4.336,2.287a1,1,0,1,0,.935-1.773l-4.336-2.287a1,1,0,0,0-.935,1.773Z" transform="translate(-47.409 -21.856)" fill="#da0000"/>
    <path id="Path_12" data-name="Path 12" d="M49.534,142.108a1,1,0,0,0,1.354.42l4.336-2.284a1,1,0,0,0-.934-1.774l-4.336,2.284A1,1,0,0,0,49.534,142.108Z" transform="translate(-47.409 -124.489)" fill="#da0000"/>
    <path id="Path_13" data-name="Path 13" d="M400.033,94.724h4.336a1,1,0,0,0,0-2h-4.336a1,1,0,0,0,0,2Z" transform="translate(-361.984 -83.428)" fill="#da0000"/>
    <path id="Path_14" data-name="Path 14" d="M400.032,28.581a1,1,0,0,0,.467-.116l4.336-2.287a1,1,0,1,0-.935-1.773l-4.336,2.287a1,1,0,0,0,.468,1.889Z" transform="translate(-361.982 -21.855)" fill="#da0000"/>
    <path id="Path_15" data-name="Path 15" d="M399.564,140.243l4.336,2.284a1,1,0,0,0,.934-1.773l-4.336-2.284a1,1,0,0,0-.934,1.774Z" transform="translate(-361.981 -124.488)" fill="#da0000"/>
    <path id="Path_16" data-name="Path 16" d="M246.875,381.423a1,1,0,0,0-1,1v.006a1,1,0,1,0,1-1.008Z" transform="translate(-224.175 -343.197)" fill="#fff"/>
  </g>
</svg>
