<svg xmlns="http://www.w3.org/2000/svg" width="55.191" height="45.287"><g data-name="Group 29"><path fill="#da0000" d="M12.05 33.68a1.08 1.08 0 00-1.52.13l-2.7 3.22-.98-.83a1.08 1.08 0 10-1.4 1.65l1.8 1.52a1.08 1.08 0 00.7.26q.05 0 .1 0a1.08 1.08 0 00.74-.38l3.39-4.05a1.08 1.08 0 00-.13-1.53z" data-name="Path 17"/><path fill="#fff" d="M52.9 17.05h-1.54c-1.3-.06-2.34-1.16-3.55-2.44a15.52 15.52 0 00-2.71-2.45V2.94A2.95 2.95 0 0042.16 0H7a2.95 2.95 0 00-2.94 2.94v7.48a1.08 1.08 0 002.15 0V2.94A.8.8 0 017 2.16h11.92v9.54a1.08 1.08 0 001.65.91l4-2.5 4 2.5a1.08 1.08 0 001.65-.91V2.16h11.94a.8.8 0 01.78.79v8.3a5.9 5.9 0 00-1.1-.13h-6.11a2.64 2.64 0 00-2.3 1.1 3.1 3.1 0 00-.14 2.9 4.58 4.58 0 00.36.74h-8.17a3.19 3.19 0 00-3.02 4.22h-.28a3.19 3.19 0 000 6.37h.28a3.19 3.19 0 002.85 4.21 3.19 3.19 0 003.01 4.22h13.36a5.18 5.18 0 001.26-.15v3.37a.8.8 0 01-.78.8H17.19A8.76 8.76 0 006.2 28.14V20.1a1.08 1.08 0 10-2.16 0v9.04a8.76 8.76 0 1012.2 11.9h25.9a2.95 2.95 0 002.95-2.95v-4.44c.24-.17.47-.35.69-.52a4.8 4.8 0 013.08-1.36h4.04a2.28 2.28 0 002.28-2.28V19.33a2.29 2.29 0 00-2.28-2.28zm-24.83-7.3l-2.92-1.83a1.08 1.08 0 00-1.14 0l-2.93 1.83V2.16h7zM8.76 43.13a6.6 6.6 0 116.6-6.6 6.61 6.61 0 01-6.6 6.6zM53.03 29.5a.13.13 0 01-.12.13h-4.04a6.76 6.76 0 00-4.4 1.81 4.41 4.41 0 01-2.8 1.28H28.33a1.03 1.03 0 010-2.06h3.58a1.08 1.08 0 100-2.15h-6.42a1.03 1.03 0 010-2.06h6.42a1.08 1.08 0 000-2.16h-9.72a1.03 1.03 0 010-2.06h9.72a1.08 1.08 0 100-2.15h-6.42a1.03 1.03 0 010-2.06H41.4a1.08 1.08 0 100-2.16h-3.9a2.34 2.34 0 01-2.2-1.5c-.2-.54-.15-.85-.1-.93a.75.75 0 01.55-.15h6.05c1.82.03 3.1 1.38 4.44 2.8 1.4 1.5 2.86 3.04 5.05 3.13h1.61a.13.13 0 01.13.12V29.5z" data-name="Path 18"/><path fill="#fff" d="M5.13 16.35a1.08 1.08 0 10-1.08-1.08 1.07 1.07 0 001.08 1.08z" data-name="Path 19"/></g></svg>