<svg xmlns="http://www.w3.org/2000/svg" width="52.555" height="50.6"><g data-name="fast-delivery (1)"><g data-name="Group 30"><path fill="#da0000" d="M39.9 38.93a.97.97 0 01-.97-.97v-7.79a.97.97 0 111.95 0v7.79a.97.97 0 01-.98.97z" data-name="Path 20"/></g><g data-name="Group 31"><path fill="#da0000" d="M47.69 38.93H39.9a.97.97 0 010-1.95h7.79a.97.97 0 010 1.95z" data-name="Path 21"/></g><g data-name="Group 32"><path fill="#fff" d="M21.2 48.66a.97.97 0 01-.49-.13L.5 36.85a.97.97 0 01-.49-.84V12.65a.97.97 0 01.49-.84L20.72.13a.97.97 0 01.97 0l20.23 11.68a.97.97 0 01.48.84v9.8a.97.97 0 11-1.94 0v-9.24L21.2 2.1 1.95 13.21v22.24L21.2 46.56l4.3-2.47a.97.97 0 01.96 1.68l-4.77 2.76a.97.97 0 01-.49.13z" data-name="Path 22"/></g><g data-name="Group 33"><path fill="#da0000" d="M39.81 50.6a12.35 12.35 0 01-3.58-.54 12.64 12.64 0 013.7-24.74 12.62 12.62 0 015.71 1.36 12.77 12.77 0 016.91 11.28 12.44 12.44 0 01-3.85 9 12.92 12.92 0 01-8.89 3.64zm.12-23.34a10.69 10.69 0 107.42 18.3 10.5 10.5 0 003.26-7.6 10.8 10.8 0 00-5.85-9.55 10.68 10.68 0 00-4.83-1.14z" data-name="Path 23"/></g><g data-name="Group 34"><path fill="#fff" d="M9.14 18.34a.97.97 0 01-.49-1.81L28.88 4.85a.97.97 0 11.98 1.68L9.63 18.21a.96.96 0 01-.49.13z" data-name="Path 24"/></g><g data-name="Group 35"><path fill="#fff" d="M13.03 20.59a.97.97 0 01-.48-1.82L32.78 7.1a.97.97 0 11.97 1.69L13.52 20.46a.96.96 0 01-.49.13z" data-name="Path 25"/></g><g data-name="Group 36"><path fill="#fff" d="M21.2 48.66a.97.97 0 01-.97-.97V24.33a.97.97 0 111.94 0V47.7a.97.97 0 01-.97.97z" data-name="Path 29"/></g><g data-name="Group 40"><path fill="#fff" d="M21.2 25.3a.97.97 0 01-.49-.13L.5 13.5a.97.97 0 11.97-1.68l20.23 11.68a.97.97 0 01-.49 1.81z" data-name="Path 30"/></g><g data-name="Group 41"><path fill="#fff" d="M21.2 25.3a.97.97 0 01-.48-1.81L40.94 11.8a.97.97 0 11.98 1.69L21.69 25.16a.97.97 0 01-.49.13z" data-name="Path 31"/></g></g></svg>